<svg width="58" height="58" viewBox="0 0 58 58" fill="none" xmlns="http://www.w3.org/2000/svg">
<path fill-rule="evenodd" clip-rule="evenodd" d="M36.25 9.66665V7.24998C36.25 5.91598 37.3327 4.83331 38.6667 4.83331C40.0007 4.83331 41.0833 5.91598 41.0833 7.24998V9.66665C46.4242 9.66665 50.75 13.9949 50.75 19.3333V43.5C50.75 48.8384 46.4242 53.1666 41.0833 53.1666C34.1741 53.1666 23.8283 53.1666 16.9167 53.1666C11.5782 53.1666 7.25 48.8384 7.25 43.5V19.3333C7.25 13.9949 11.5782 9.66665 16.9167 9.66665V7.24998C16.9167 5.91598 17.9993 4.83331 19.3333 4.83331C20.6673 4.83331 21.75 5.91598 21.75 7.24998V9.66665H36.25ZM45.9167 29H12.0833V43.5C12.0833 46.168 14.2487 48.3333 16.9167 48.3333H41.0833C43.7537 48.3333 45.9167 46.168 45.9167 43.5V29ZM33.5748 37.8329L36.9822 34.5172C37.9392 33.5868 39.469 33.6086 40.3994 34.5656C41.3298 35.5202 41.3081 37.0523 40.3535 37.9827L35.3848 42.8161C34.4955 43.6788 33.1011 43.732 32.1513 42.9393L29.4302 40.6677C28.4055 39.8146 28.2677 38.2896 29.1232 37.265C29.9763 36.2403 31.5012 36.1026 32.5259 36.9581L33.5748 37.8329ZM41.0833 14.5V16.9166C41.0833 18.2506 40.0007 19.3333 38.6667 19.3333C37.3327 19.3333 36.25 18.2506 36.25 16.9166V14.5H21.75V16.9166C21.75 18.2506 20.6673 19.3333 19.3333 19.3333C17.9993 19.3333 16.9167 18.2506 16.9167 16.9166V14.5C14.2487 14.5 12.0833 16.6629 12.0833 19.3333V24.1666H45.9167V19.3333C45.9167 16.6629 43.7537 14.5 41.0833 14.5Z" fill="white"/>
</svg>
