<svg width="34" height="34" viewBox="0 0 34 34" fill="none" xmlns="http://www.w3.org/2000/svg">
<path fill-rule="evenodd" clip-rule="evenodd" d="M21.25 5.66665V4.24998C21.25 3.46798 21.8847 2.83331 22.6667 2.83331C23.4487 2.83331 24.0833 3.46798 24.0833 4.24998V5.66665C27.2142 5.66665 29.75 8.2039 29.75 11.3333V25.5C29.75 28.6294 27.2142 31.1666 24.0833 31.1666C20.0331 31.1666 13.9683 31.1666 9.91667 31.1666C6.78725 31.1666 4.25 28.6294 4.25 25.5V11.3333C4.25 8.2039 6.78725 5.66665 9.91667 5.66665V4.24998C9.91667 3.46798 10.5513 2.83331 11.3333 2.83331C12.1153 2.83331 12.75 3.46798 12.75 4.24998V5.66665H21.25ZM26.9167 17H7.08333V25.5C7.08333 27.064 8.35267 28.3333 9.91667 28.3333H24.0833C25.6488 28.3333 26.9167 27.064 26.9167 25.5V17ZM19.6818 22.1779L21.6792 20.2342C22.2402 19.6888 23.137 19.7016 23.6824 20.2626C24.2278 20.8222 24.2151 21.7203 23.6555 22.2657L20.7428 25.0991C20.2215 25.6048 19.4041 25.636 18.8473 25.1713L17.2522 23.8397C16.6515 23.3396 16.5707 22.4456 17.0722 21.845C17.5723 21.2443 18.4662 21.1636 19.0669 21.6651L19.6818 22.1779ZM24.0833 8.49998V9.91665C24.0833 10.6986 23.4487 11.3333 22.6667 11.3333C21.8847 11.3333 21.25 10.6986 21.25 9.91665V8.49998H12.75V9.91665C12.75 10.6986 12.1153 11.3333 11.3333 11.3333C10.5513 11.3333 9.91667 10.6986 9.91667 9.91665V8.49998C8.35267 8.49998 7.08333 9.7679 7.08333 11.3333V14.1666H26.9167V11.3333C26.9167 9.7679 25.6488 8.49998 24.0833 8.49998Z" fill="#ACACAC"/>
</svg>
