<svg width="57" height="46" viewBox="0 0 57 46" fill="none" xmlns="http://www.w3.org/2000/svg">
<path fill-rule="evenodd" clip-rule="evenodd" d="M8.55512 20.7503L11.4641 17.8435C12.3415 16.9638 12.3415 15.5397 11.4641 14.6601C10.5844 13.7827 9.16031 13.7827 8.28289 14.6601L1.53353 21.4094C0.653858 22.2891 0.653858 23.7132 1.53353 24.5929L8.28289 31.3422C9.16031 32.2197 10.5844 32.2197 11.4641 31.3422C12.3415 30.4626 12.3415 29.0385 11.4641 28.1588L8.55512 25.2498H27.8718C29.1137 25.2498 30.1216 24.2419 30.1216 23C30.1216 21.7604 29.1137 20.7503 27.8718 20.7503H8.55512Z" fill="white"/>
<path fill-rule="evenodd" clip-rule="evenodd" d="M16.5039 31.9992V36.4987C16.5039 41.4708 20.5333 45.4979 25.5031 45.4979H48.0009C52.973 45.4979 57.0001 41.4708 57.0001 36.4987C57.0001 29.0092 57.0001 16.9931 57.0001 9.50129C57.0001 4.53151 52.973 0.502136 48.0009 0.502136C41.5688 0.502136 31.9374 0.502136 25.5031 0.502136C20.5333 0.502136 16.5039 4.53151 16.5039 9.50129V14.0009C16.5039 15.2427 17.5118 16.2507 18.7537 16.2507C19.9956 16.2507 21.0035 15.2427 21.0035 14.0009C21.0035 14.0009 21.0035 11.8928 21.0035 9.50129C21.0035 7.01752 23.0193 5.00171 25.5031 5.00171H48.0009C50.487 5.00171 52.5005 7.01752 52.5005 9.50129V36.4987C52.5005 38.9848 50.487 40.9983 48.0009 40.9983C41.5688 40.9983 31.9374 40.9983 25.5031 40.9983C23.0193 40.9983 21.0035 38.9848 21.0035 36.4987C21.0035 34.1095 21.0035 31.9992 21.0035 31.9992C21.0035 30.7595 19.9956 29.7494 18.7537 29.7494C17.5118 29.7494 16.5039 30.7595 16.5039 31.9992Z" fill="white"/>
</svg>
