<svg width="34" height="34" viewBox="0 0 34 34" fill="none" xmlns="http://www.w3.org/2000/svg">
<path fill-rule="evenodd" clip-rule="evenodd" d="M18.4167 29.75C18.4167 30.5335 19.0499 31.1667 19.8333 31.1667H24.0833C25.5864 31.1667 27.0272 30.5703 28.0897 29.5078C29.1522 28.4453 29.75 27.0031 29.75 25.5C29.75 24.6869 29.75 24.0834 29.75 24.0834C29.75 23.3014 29.1153 22.6667 28.3333 22.6667H19.8333C19.0499 22.6667 18.4167 23.3014 18.4167 24.0834V29.75ZM14.1667 31.1667C14.9487 31.1667 15.5833 30.5335 15.5833 29.75V15.5834C15.5833 14.8014 14.9487 14.1667 14.1667 14.1667H5.66667C4.88325 14.1667 4.25 14.8014 4.25 15.5834V25.5C4.25 27.0031 4.84641 28.4453 5.90891 29.5078C6.97141 30.5703 8.41358 31.1667 9.91667 31.1667H14.1667ZM26.9167 25.5H21.25V28.3334H24.0833C24.8342 28.3334 25.5553 28.0359 26.0865 27.5046C26.6178 26.9734 26.9167 26.2523 26.9167 25.5ZM12.75 28.3334V17H7.08333V25.5C7.08333 26.2523 7.38083 26.9734 7.9135 27.5046C8.44475 28.0359 9.16442 28.3334 9.91667 28.3334H12.75ZM19.8333 2.83337C19.0499 2.83337 18.4167 3.46804 18.4167 4.25004V18.4167C18.4167 19.2001 19.0499 19.8334 19.8333 19.8334H28.3333C29.1153 19.8334 29.75 19.2001 29.75 18.4167V8.50004C29.75 6.99837 29.1522 5.5562 28.0897 4.4937C27.0272 3.4312 25.5864 2.83337 24.0833 2.83337H19.8333ZM21.25 5.66671V17H26.9167V8.50004C26.9167 7.74921 26.6178 7.02812 26.0865 6.49687C25.5553 5.96562 24.8342 5.66671 24.0833 5.66671H21.25ZM15.5833 4.25004C15.5833 3.46804 14.9487 2.83337 14.1667 2.83337H9.91667C8.41358 2.83337 6.97141 3.4312 5.90891 4.4937C4.84641 5.5562 4.25 6.99837 4.25 8.50004V9.91671C4.25 10.7001 4.88325 11.3334 5.66667 11.3334H14.1667C14.9487 11.3334 15.5833 10.7001 15.5833 9.91671V4.25004ZM12.75 5.66671H9.91667C9.16442 5.66671 8.44475 5.96562 7.9135 6.49687C7.38083 7.02812 7.08333 7.74921 7.08333 8.50004H12.75V5.66671Z" fill="white"/>
</svg>
