<svg width="58" height="58" viewBox="0 0 58 58" fill="none" xmlns="http://www.w3.org/2000/svg">
<path fill-rule="evenodd" clip-rule="evenodd" d="M9.66659 38.6667V43.5C9.66659 48.8409 13.9948 53.1667 19.3333 53.1667H43.4999C48.8408 53.1667 53.1666 48.8409 53.1666 43.5C53.1666 35.455 53.1666 22.5475 53.1666 14.5C53.1666 9.16162 48.8408 4.83337 43.4999 4.83337C36.5907 4.83337 26.2449 4.83337 19.3333 4.83337C13.9948 4.83337 9.66659 9.16162 9.66659 14.5V19.3334C9.66659 20.6674 10.7493 21.75 12.0833 21.75C13.4173 21.75 14.4999 20.6674 14.4999 19.3334C14.4999 19.3334 14.4999 17.069 14.4999 14.5C14.4999 11.832 16.6653 9.66671 19.3333 9.66671H43.4999C46.1703 9.66671 48.3333 11.832 48.3333 14.5V43.5C48.3333 46.1705 46.1703 48.3334 43.4999 48.3334C36.5907 48.3334 26.2449 48.3334 19.3333 48.3334C16.6653 48.3334 14.4999 46.1705 14.4999 43.5C14.4999 40.9335 14.4999 38.6667 14.4999 38.6667C14.4999 37.3351 13.4173 36.25 12.0833 36.25C10.7493 36.25 9.66659 37.3351 9.66659 38.6667ZM27.9994 26.5834L24.8747 23.461C23.9322 22.5161 23.9322 20.9864 24.8747 20.0415C25.8196 19.099 27.3493 19.099 28.2918 20.0415L35.5418 27.2915C36.4868 28.2364 36.4868 29.7661 35.5418 30.711L28.2918 37.961C27.3493 38.9035 25.8196 38.9035 24.8747 37.961C23.9322 37.0161 23.9322 35.4864 24.8747 34.5415L27.9994 31.4167H7.24992C5.91592 31.4167 4.83325 30.334 4.83325 29C4.83325 27.6685 5.91592 26.5834 7.24992 26.5834H27.9994Z" fill="white"/>
</svg>
